<svg class="byCombo" viewBox="0 0 300 200">
  <g class="recordPlayer">
    <path class="copperDark" d="M0,155.93H300v22.93c0,5.31-4.3,9.61-9.61,9.61H9.61C4.3,188.47,0,184.17,0,178.86v-22.93Z"/>
    <g class="copperMedium">
      <path d="M70.63,170.68l-1.21,.99c10.95,0,16.03,6.39,8.85,11.78-1.62,1.36-4.05,2.09-7.27,2.09-3.8,0-5.33,0-9.21-.2h-10.62v-2.52h1.03l1.47-1.16v-18.05h-2.5v-3.68h10.62c6-8.13,18.91,3.83,13.09,9.65-1.07,.67-2.51,1.06-4.25,1.09Zm-2.11-.97c1.34-.66,2.07-1.89,2.07-3.55,0-2.38-1.29-3.92-4.69-3.92h-.36l-1.29,.86,4.27,6.61Zm-2.97,2.95l-1.29,1.02,5,8.65c1.4-.82,2.15-2.31,2.15-4.38,0-3.39-1.94-5.29-5.73-5.29h-.12Z"/>
      <path d="M88.2,174.96l-7.88-11.35h-2.34v-3.68c1.56-6.74,17.43-3.06,15.87,3.68h-2.58l-.9,.88,5.17,7.87,.82-1,4.72-7.35h-3.39v-4.08c2.15-5.59,12.73-1.51,10.58,4.08h-3.03l-.69,.89-3.51,20.44h-15.39v-2.52h1.6l.95-1.16v-6.7Z"/>
      <path d="M136.16,182.1c-3.49,2.44-8.08,3.6-12.71,3.6-9.61,0-16.07-5.29-16.07-13.04,0-2.55,.64-4.82,1.81-6.72-.99-7.35,21.02-10.31,22.01-2.96l.29-.86v-1.11c5.65-3.07,9.83,4.62,4.18,7.69h-3.62l-3.72-5.49c-3.71,0-6.68,2.11-8.04,5.4l9.67,14.09,.31-1.15c0-.54,.04-1.03,.13-1.49,2.62-7.36,8.38-5.31,5.76,2.05Z"/>
      <path d="M138.35,177.22c0-5.13,4.16-8.72,10.42-8.72,5.94,0,10.14,3.59,10.14,8.72s-4.28,8.68-10.34,8.68-10.22-3.51-10.22-8.68Zm9.81,0c0,2.26,1.62,3.92,3.8,3.92s3.8-1.74,3.8-4.04-1.62-3.92-3.8-3.92-3.8,1.66-3.8,4.04Z"/>
      <path d="M171.75,181.66l.33,1.16h.68v2.52h-12.08c-1.37-.27,.87-11.89,2.25-11.62l-.19-1.02h-1.9c-8.59-8.59,32.11-10.81,35.38-1.03,.44,1.33,1.05,2.79,1.05,4.7v5.29l.71,1.16h1.26v2.52h-11.56c-1.24-.05-.82-10.21,.42-10.16-.22-.95-.79-1.39-1.59-1.39-1.45,0-2.1,1.01-2.1,3.11v4.77l.52,1.16h.53v2.52h-10.7c-1.59-.11-.88-10.01,.71-9.9-.17-1.13-.75-1.65-1.68-1.65-1.13,0-1.78,.69-2.06,2.06v5.82Z"/>
      <path d="M210.04,185.34h-8.03c-1.46-.12,.51-24.04,1.97-23.92l-.8-.83-2.02,1c-6.54-6.54,10.09-4.87,11.19-3.77v13.27l.94,.99c-.23-3.33,11.59-4.13,11.82-.8,1.37,1.46,2.18,3.46,2.18,5.86,0,5.21-3.92,8.56-9.05,8.56-2.48,0-4.34-.73-5.61-1.98l-.36-.66-.93-1.16-1.29,3.43Zm2.26-8.28c0,2.63,.93,4.08,2.54,4.08,1.82,0,2.87-1.41,2.87-4s-.97-4.04-2.87-4.04c-1.62,0-2.54,1.45-2.54,3.96Z"/>
      <path d="M228.98,177.22c0-5.13,4.16-8.72,10.42-8.72,5.94,0,10.14,3.59,10.14,8.72s-4.28,8.68-10.34,8.68-10.22-3.51-10.22-8.68Zm9.81,0c0,2.26,1.62,3.92,3.8,3.92s3.8-1.74,3.8-4.04-1.62-3.92-3.8-3.92-3.8,1.66-3.8,4.04Z"/>
    </g>
    <g class="mapleDark">
      <path d="M69.37,167.07c0-2.42-1.31-3.98-4.76-3.98h-.37v8.16h.21c3.12,0,4.92-1.56,4.92-4.18Z"/>
      <path d="M64.37,173.67h-.12v10.58h.49c3.53,0,5.45-1.84,5.45-5.21s-1.97-5.37-5.82-5.37Z"/>
      <path d="M151.99,174.21c-2.3,0-3.85,1.68-3.85,4.1s1.64,3.98,3.85,3.98,3.85-1.76,3.85-4.1-1.64-3.98-3.85-3.98Z"/>
      <path d="M215.83,174.12c-1.64,0-2.58,1.48-2.58,4.02s.94,4.14,2.58,4.14c1.84,0,2.91-1.44,2.91-4.06s-.98-4.1-2.91-4.1Z"/>
      <path d="M243.99,174.21c-2.3,0-3.85,1.68-3.85,4.1s1.64,3.98,3.85,3.98,3.85-1.76,3.85-4.1-1.64-3.98-3.85-3.98Z"/>
      <path d="M0,155.93v22.93c0,5.31,4.3,9.61,9.61,9.61H290.39c5.31,0,9.61-4.3,9.61-9.61v-22.93H0Zm69.78,30.82c-3.85,0-5.41,0-9.35-.21h-10.78v-3.73h2.54v-18.33h-2.54v-3.73h10.78c4.26,0,5-.21,7.79-.21,4.92,0,7.83,2.01,7.83,5.7,0,3.2-2.42,5.33-6.64,5.41,6.4,.12,10.13,2.99,10.13,7.38,0,4.84-3.36,7.71-9.76,7.71Zm30.5-3.94v3.73h-15.62v-3.73h2.58v-6.81l-8-11.52h-2.38v-3.73h16.11v3.73h-2.62l5.17,7.87,4.8-7.46h-3.44v-4.14h10.74v4.14h-3.07l-6.85,10.42v7.5h2.58Zm35.88,.29c-3.57,2.58-8.32,3.81-13.12,3.81-9.76,0-16.32-5.37-16.32-13.24s6.27-13.37,15.91-13.37c3.61,0,6.48,.98,8.57,2.67v-1.97h4.47v8.65h-3.9l-3.77-5.58c-5.21,0-8.98,4.1-8.98,9.8,0,5.99,3.2,9.43,7.5,9.43,1.31,0,2.46-.2,3.44-.61,0-4.14,2.54-5.99,5.58-5.99h.62v6.4Zm12.38,4.02c-6.31,0-10.37-3.57-10.37-8.82s4.22-8.86,10.58-8.86c6.03,0,10.29,3.65,10.29,8.86s-4.35,8.82-10.5,8.82Zm51.46-.57h-12.3v-3.73h1.11v-5.54c0-1.68-.66-2.46-1.72-2.46-1.48,0-2.13,1.02-2.13,3.16v4.84h1.07v3.73h-11.23v-3.73h1.15v-5.54c0-1.68-.62-2.46-1.76-2.46s-1.8,.7-2.09,2.09v5.9h1.02v3.73h-12.26v-3.73h2.09v-9.1h-2.09v-3.73h9.76l.94,3.77c1.19-2.42,3.4-4.18,6.72-4.18,2.99,0,5.08,1.43,6.07,4.1,1.23-2.38,3.49-4.1,6.81-4.1,4.22,0,6.85,2.75,6.85,7.87v5.37h2.01v3.73Zm19.27,.37c-3.57,0-5.86-1.48-7.01-3.85l-1.31,3.48h-8.94v-3.73h1.97v-21.4l-2.83,1.39v-5h12.14v14.27c1.31-1.56,3.36-2.5,6.15-2.5,5.17,0,9.02,3.36,9.02,8.65s-3.98,8.69-9.18,8.69Zm21.28,.21c-6.31,0-10.37-3.57-10.37-8.82s4.22-8.86,10.58-8.86c6.03,0,10.29,3.65,10.29,8.86s-4.35,8.82-10.5,8.82Z"/>
    </g>
    <polygon class="mapleMedium" points="0 155.93 23.17 133.66 276.83 133.66 300 155.93 0 155.93"/>
    <g class="steelDark">
      <path d="M289.22,150.03c0,.9-5.21,1.64-11.65,1.64s-11.65-.73-11.65-1.64v-7.73h23.29v7.73Z"/>
      <path d="M20.09,150.51c0,.64-2.36,1.15-5.28,1.15s-5.28-.51-5.28-1.15v-4.28h10.56v4.28Z"/>
      <rect x="224.62" y="134.29" width="29.24" height="7.61"/>
      <path d="M25.38,136.46v8.88c0,3.77,43.43,6.82,97,6.82,53.57,0,97-3.05,97-6.82v-8.88H25.38Z"/>
    </g>
    <g class="steelMedium">
      <ellipse cx="277.57" cy="142.3" rx="11.65" ry="1.64"/>
      <ellipse cx="14.81" cy="146.23" rx="5.28" ry="1.15"/>
      <polygon points="253.86 134.29 251.41 130.46 225.07 130.46 224.62 134.29 253.86 134.29"/>
    </g>
    <g class="chromeDarker">
      <circle cx="239.24" cy="127.02" r="10.18"/>
      <polygon points="237.06 146.7 246.86 142.61 246.86 136.63 237.06 140.38 237.06 146.7"/>
    </g>
    <g class="chromeDarkest">
      <path d="M289.1,188.38v9.43c0,1.21-7.06,2.2-15.77,2.2s-15.77-.98-15.77-2.2v-9.43h31.55Z"/>
      <path d="M42.44,188.33v9.43c0,1.21-7.06,2.2-15.77,2.2s-15.77-.98-15.77-2.2v-9.43h31.55Z"/>
      <circle cx="238.67" cy="130.46" r="5.72"/>
      <rect x="227.46" y="140.38" width="9.6" height="6.32"/>
    </g>
    <path class="chromeDark" d="M227.46,140.38l1.99-4.77c7.24-.29,14.28-.48,17.41,1.03l-9.8,3.74h-9.6Z"/>
    <ellipse class="rubberMediumDark" cx="122.38" cy="136.46" rx="97" ry="6.82"/>
    <g class="chromeMedium">
      <path d="M240.14,135.46l.71-4.71c0-1.2-.98-2.18-2.18-2.18s-2.18,.98-2.18,2.18l-.35,4.66c1.41-.01,2.75,0,4,.05Z"/>
    </g>
  </g>
  <g class="blood">
    <g class="bloodDarker">
      <path d="M170.58,130.54c11.96,.59,26.89,5.23,17.53,10.94-3.28,2-2.45,8.95,5.18,9.1,17.46,.33,21.29,4.52,12.63,8.09s-12.57,10.53-7.47,24.87c3.97,11.17-13.08,10.63-9.24,.25,4.29-11.58,3.81-21.35-10-25.38-12.06-3.52-27.48,3.82-42.3,3.29-17.11-.61-38.19-6.02-46.42,3.58-2.79,3.26-5.04,2.41-7.18-.01-5.49-6.19-13.49-6.05-18.29-3.3-4.37,2.5-5.32,6.03-3.1,12.2,3.44,9.53-10.25,9.22-7.31,.26,3.12-9.51-.73-15.28-7.98-15.9-12.09-1.03-15.38-6.54-3.41-8.39,3.73-.58,6.24-3.47,4.27-9.32-1.04-3.11,5.56-5.3,21.11-5,11.09,.22-1.56-5.29,21.2-5.87,20.18-.51,60.4-.41,80.76,.6Z"/>
      <path d="M87.24,180.68c1.67,7.57,3.01,7.15,3.87,11.36,1.43,6.95-9.71,6.62-7.76-.28,1.22-4.32,2.39-3.5,3.89-11.07Z"/>
    </g>
    <g class="bloodDark">
      <path d="M196.57,181.36c3.2,4.97,1.75,10.27-3.56,9.63,3.8-2.69,3.88-5.25,3.56-9.63Z"/>
      <path d="M60.6,172.71c2.19,3.72,1.49,8.06-2.94,7.92,2.04-1.74,3.17-4.3,2.94-7.92Z"/>
      <path d="M89.61,189.88c1.97,2.95,1.03,7.32-3.52,6.41,1.93-1.58,3.34-2.56,3.52-6.41Z"/>
      <path d="M92.53,162.57c-3.37,2.42-2.62,3.72-5.58,4.38,1.74-1.4,1.66-3.76,5.58-4.38Z"/>
      <path d="M190.51,150.2c-47.82,3.02-106.32,2.47-145.22-.71-6.13,1.43-10.65,3.81-5.58,5.51H207.45c.86-2.16-5.77-4.56-16.94-4.8Z"/>
      <path d="M122.38,143.29c-30.15,0-55.22-1.9-73.01-3.42-.83-1.65,5.32-4.05,20.36-4.06,11.72,0-.31-5.25,20.18-5.54,20.19-.29,60.18-1.16,80.49,.61,9.67,.84,25.09,4.9,14.92,9.68-17.28,1.12-37.57,2.74-62.93,2.74Zm-39.52-3.41c0,1.2,17.31,2.18,38.67,2.18s38.67-.97,38.67-2.18-17.31-2.18-38.67-2.18-38.67,.97-38.67,2.18Z"/>
    </g>
    <g class="bloodLight">
      <path d="M186.55,137.19c1.24,2.49-3.55,2.87-17.81,3.74,6.43-.87,16.41-1.77,17.81-3.74Z"/>
      <path d="M53.84,137.77c-8.54,1.9,7.11,2.39,17.98,3.16-6.23-1.22-22.93-1.46-17.98-3.16Z"/>
      <path d="M201.95,152c8.85,2.96-4.91,2.19-15.09,2.06,6.23-1.1,19,.57,15.09-2.06Z"/>
      <path d="M40.17,151.84c-4.79,2.77,5.66,2.66,16.85,2.35-6.24-.71-17.36-.08-16.85-2.35Z"/>
    </g>
  </g>
  <g class="bennett">
    <path class="skinEastAsian" d="M65.93,112.15c1.69,5.54,5.35,10.63,11.24,13.03,6.2,2.53,7.25,6.89,14.3,1.71,16,14.26,34.71,15.34,50.71,13.73,18.23-1.83,23.88-12.85,27.63-22.27,12.84-32.2-9.85-43.14-13.32-61.87-1.92-10.41-9.89-14.82-11.28-26.4C125.75-10.34,41.31,61.07,65.93,112.15Z"/>
    <path class="bloodDried" d="M136.92,138.09c-10.54,2.23-13.28-2.21-24.02-3.93-2.44-.39-6.15-.1-9.27,.98,12.84,6.37,26.47,6.69,38.55,5.48,4.15-.42,7.64-1.31,10.61-2.55-7.36-1.85-9.52-1.32-15.87,.02Z"/>
    <path class="tongue" d="M150.98,110.77c-2.01,6.62,2.94,14.81-7.07,17.48-4.47,1.19-8.92-3.21-6.29-9.73,4.1-3.5,9.09-5.77,13.35-7.76Z"/>
    <path class="tongueFold" d="M142.77,114.92c-.75,2.18-.79,5.77,.33,7.41-.68-2.47-.25-6.37,.6-7.93l-.92,.53Z"/>
    <g class="eyebrowBlack">
      <path d="M124.21,66.16c-6.99,6.99-20.64,8.78-23.51,17.94,7-5.8,19.45-6.72,23.51-17.94Z"/>
      <path d="M156.29,58.57c-6.48-4.32-14.94,2.62-21.49,3.4,7.34,4.25,15.13-3.24,21.49-3.4Z"/>
    </g>
    <g class="skinDisplay">
      <path d="M160.29,106.4c-11.17,5.63-23.08,9.15-27.38,18.12-2.73-8.92,25.99-19.31,27.38-18.12Z"/>
      <path d="M79.13,104.19c-6.45-4.53-10.1-1.94-11.14,2.77s2.85,13.37,9.45,14.99c-6.35-3.11-9.88-10.03-8.14-15.54,.85-2.68,3.47-5.68,9.82-2.21Z"/>
      <path d="M82.62,112.82c-1.91,3.04,4.7,5.87,2.46,7.59-1.48,1.14-1.89-3.95-7.63-3.19-6.1,.81-2.1-10.31,.73-7.74-2.49-.58-4.86,7.72-.66,6.89,4.71-.94,6.65,3.44,6.93,3.35,1.87-.6-5.45-4.69-1.83-6.89Z"/>
      <path d="M137.09,105.75c-3.48,.58-5.24-4.04-3.54-6.58,.16,3.27,1.47,5.66,3.54,6.58Z"/>
      <path d="M139.43,104.1c2.42-2.94,12.08-.81,12.78-7.33-3.58,6.02-10.66,2.72-12.78,7.33Z"/>
      <path d="M153.03,98.07c5.15-7.98-5.78-8.91-8.35-13.14,2.64,5.71,10.76,4.72,8.35,13.14Z"/>
      <path d="M126.22,80.54c1.82,3.46-17.9,13.23-20.32,9.58,5.52-1.08,15.88-5.98,20.32-9.58Z"/>
      <path d="M156.21,65.85c1.87,2.99-13.34,11.44-16.12,8.16,6.5-1.88,12.3-4.97,16.12-8.16Z"/>
      <path d="M124.36,86.84c.91,1.73-10.4,7.3-11.61,5.47,3.35-.22,9.9-3.39,11.61-5.47Z"/>
      <path d="M155.6,71.55c.93,1.5-7.76,6.36-9.16,4.72,3.58-.45,7.5-2.73,9.16-4.72Z"/>
    </g>
    <path class="hairBlack" d="M88.8,95.29c-6.52-17.3,5.03-23.84-3.97-39.41,22.18,8.22,29.71-7.49,44.86-1.76-1.32-3.69-5.11-6.35-11.3-8.02,18.4,2.45,25.1-11.24,43.35,3.92-.21-15.45-11.15-30.98-25.14-38.28,4.68-3.23,6.96-7.21,7.46-11.74-12.12,14.77-56.61-18.59-94.15,33.47-2.82-3.45-4.19-10.54-1.65-20.88-6.62,8.13-7.65,19.56-4.59,28.43-7.4,.31-11.59,3.91-14.1,8.92,4.32-2.07,9.95-2.73,13.38-1.11-6.93,23.67,2.86,51.91,22.96,63.33-2.47-11.12,6.82-16.77,13.73-10.83l9.15-6.03Z"/>
  </g>
</svg>