<svg class="byCombo" viewBox="0 0 300 200">
  <g class="recordPlayer">
    <path class="copperDark" d="M0,155.93H300v22.93a9.61,9.61,0,0,1-9.61,9.61H9.61A9.61,9.61,0,0,1,0,178.86Z"/>
    <g class="copperMedium">
      <path d="M70.63,170.68l-1.21,1c10.94,0,16,6.39,8.84,11.79-1.61,1.35-4.05,2.09-7.27,2.09-3.79,0-5.33,0-9.21-.2H51.16v-2.52h1l1.48-1.16v-18H51.16v-3.68H61.78c6-8.13,18.91,3.84,13.1,9.65A8.38,8.38,0,0,1,70.63,170.68Zm-2.11-1a3.74,3.74,0,0,0,2.07-3.56c0-2.38-1.29-3.91-4.69-3.91h-.36l-1.29.86Zm-3,2.95-1.29,1,5,8.65A4.69,4.69,0,0,0,71.4,178c0-3.4-1.94-5.29-5.74-5.29Z"/>
      <path d="M88.2,175l-7.88-11.35H78v-3.68c1.56-6.73,17.43-3.06,15.87,3.68H91.27l-.9.88,5.16,7.87.82-1,4.73-7.35H97.69v-4.08c2.15-5.58,12.73-1.51,10.58,4.08h-3l-.69.89L101,185.34H85.65v-2.52h1.6l1-1.16Z"/>
      <path d="M136.16,182.1a22.37,22.37,0,0,1-12.71,3.6c-9.61,0-16.07-5.29-16.07-13a12.61,12.61,0,0,1,1.81-6.73c-1-7.35,21-10.31,22-3l.29-.86V161c5.65-3.06,9.83,4.63,4.18,7.7h-3.62l-3.71-5.49a8.49,8.49,0,0,0-8,5.4L130,182.69l.31-1.15a8.65,8.65,0,0,1,.12-1.49C133,172.69,138.78,174.74,136.16,182.1Z"/>
      <path d="M138.35,177.22c0-5.13,4.16-8.72,10.42-8.72,5.94,0,10.14,3.59,10.14,8.72s-4.28,8.68-10.34,8.68C142.35,185.9,138.35,182.39,138.35,177.22Zm9.82,0a3.75,3.75,0,0,0,3.79,3.92,3.86,3.86,0,0,0,3.8-4,3.8,3.8,0,1,0-7.59.12Z"/>
      <path d="M171.75,181.66l.33,1.16h.68v2.52H160.69c-1.38-.27.87-11.89,2.25-11.63l-.19-1h-1.91c-8.58-8.59,32.11-10.82,35.38-1a13.69,13.69,0,0,1,1.06,4.7v5.29l.71,1.16h1.27v2.52H187.7c-1.24-.06-.82-10.21.42-10.16a1.55,1.55,0,0,0-1.59-1.39c-1.45,0-2.1,1-2.1,3.11v4.76l.52,1.16h.53v2.52h-10.7c-1.58-.12-.87-10,.72-9.9-.17-1.13-.75-1.65-1.69-1.65-1.13,0-1.77.68-2.06,2.06Z"/>
      <path d="M210,185.34h-8c-1.46-.12.51-24.05,2-23.93l-.81-.83-2,1c-6.55-6.55,10.09-4.87,11.19-3.77v13.27l.94,1c-.22-3.32,11.6-4.12,11.82-.79a8.33,8.33,0,0,1,2.18,5.86c0,5.21-3.91,8.56-9,8.56a7.72,7.72,0,0,1-5.62-2l-.36-.66-.93-1.16Zm2.26-8.28c0,2.62.93,4.08,2.54,4.08,1.82,0,2.87-1.42,2.87-4s-1-4-2.87-4C213.23,173.1,212.3,174.55,212.3,177.06Z"/>
      <path d="M229,177.22c0-5.13,4.16-8.72,10.42-8.72,5.93,0,10.13,3.59,10.13,8.72s-4.28,8.68-10.33,8.68C233,185.9,229,182.39,229,177.22Zm9.81,0a3.75,3.75,0,0,0,3.8,3.92,3.85,3.85,0,0,0,3.79-4,3.8,3.8,0,1,0-7.59.12Z"/>
    </g>
    <g class="mapleDark">
      <path d="M69.37,167.07c0-2.42-1.31-4-4.75-4h-.37v8.15h.2C67.57,171.25,69.37,169.7,69.37,167.07Z"/>
      <path d="M64.37,173.67h-.12v10.58h.49c3.53,0,5.45-1.84,5.45-5.21S68.23,173.67,64.37,173.67Z"/>
      <path d="M152,174.21a4,4,0,0,0,0,8.07,3.91,3.91,0,0,0,3.85-4.1A3.78,3.78,0,0,0,152,174.21Z"/>
      <path d="M215.83,174.12c-1.64,0-2.59,1.48-2.59,4s.95,4.14,2.59,4.14c1.84,0,2.91-1.43,2.91-4.06S217.75,174.12,215.83,174.12Z"/>
      <path d="M244,174.21a4,4,0,0,0,0,8.07,3.91,3.91,0,0,0,3.86-4.1A3.78,3.78,0,0,0,244,174.21Z"/>
      <path d="M0,155.93v22.93a9.61,9.61,0,0,0,9.61,9.61H290.39a9.61,9.61,0,0,0,9.61-9.61V155.93Zm69.78,30.82c-3.85,0-5.41,0-9.34-.2H49.65v-3.73h2.54V164.49H49.65v-3.73H60.44c4.26,0,5-.21,7.79-.21,4.92,0,7.83,2,7.83,5.7,0,3.2-2.42,5.33-6.64,5.41,6.39.13,10.12,3,10.12,7.38C79.54,183.88,76.18,186.75,69.78,186.75Zm30.51-3.93v3.73H84.67v-3.73h2.58V176l-8-11.52H76.88v-3.73H93v3.73H90.37l5.16,7.87,4.8-7.46H96.88v-4.14h10.75v4.14h-3.08L97.7,175.31v7.51Zm35.87.28A22.49,22.49,0,0,1,123,186.92c-9.76,0-16.32-5.37-16.32-13.25,0-8.07,6.28-13.36,15.91-13.36A13.37,13.37,0,0,1,131.2,163v-2h4.47v8.66h-3.89L128,164.08c-5.2,0-9,4.1-9,9.8,0,6,3.19,9.43,7.5,9.43a8.88,8.88,0,0,0,3.44-.62c0-4.14,2.54-6,5.58-6h.61Zm12.38,4c-6.31,0-10.37-3.57-10.37-8.81s4.22-8.86,10.58-8.86c6,0,10.29,3.65,10.29,8.86S154.69,187.12,148.54,187.12Zm51.46-.57H187.7v-3.73h1.11v-5.54c0-1.68-.66-2.46-1.72-2.46-1.48,0-2.14,1-2.14,3.16v4.84H186v3.73H174.78v-3.73h1.15v-5.54c0-1.68-.61-2.46-1.76-2.46s-1.8.7-2.09,2.09v5.91h1v3.73H160.84v-3.73h2.1v-9.11h-2.1V170h9.76l1,3.78a7.15,7.15,0,0,1,6.72-4.19,6,6,0,0,1,6.07,4.1,7.33,7.33,0,0,1,6.8-4.1c4.23,0,6.85,2.75,6.85,7.88v5.37h2Zm19.27.37c-3.57,0-5.86-1.48-7-3.86L211,186.55H202v-3.73h2V161.41l-2.83,1.4v-5h12.13v14.26a7.72,7.72,0,0,1,6.15-2.5c5.17,0,9,3.36,9,8.65S224.48,186.92,219.27,186.92Zm21.28.2c-6.32,0-10.37-3.57-10.37-8.81s4.22-8.86,10.57-8.86c6,0,10.29,3.65,10.29,8.86S246.7,187.12,240.55,187.12Z"/>
    </g>
    <polygon class="mapleMedium" points="0 155.93 23.17 133.66 276.83 133.66 300 155.93 0 155.93"/>
    <g class="steelDark">
      <path d="M289.22,150c0,.9-5.22,1.63-11.65,1.63s-11.64-.73-11.64-1.63V142.3h23.29Z"/>
      <path d="M20.09,150.51c0,.64-2.37,1.15-5.28,1.15s-5.28-.51-5.28-1.15v-4.28H20.09Z"/>
      <rect x="224.62" y="134.29" width="29.24" height="7.61"/>
      <path d="M25.38,136.46v8.88c0,3.77,43.43,6.83,97,6.83s97-3.06,97-6.83v-8.88Z"/>
    </g>
    <g class="steelMedium">
      <ellipse cx="277.57" cy="142.3" rx="11.65" ry="1.64"/>
      <ellipse cx="14.81" cy="146.23" rx="5.28" ry="1.15"/>
      <polygon points="253.87 134.29 251.41 130.46 225.07 130.46 224.62 134.29 253.87 134.29"/>
    </g>
    <g class="chromeDarker">
      <circle cx="239.24" cy="127.02" r="10.18"/>
      <polygon points="237.06 146.7 246.86 142.61 246.86 136.63 237.06 140.38 237.06 146.7"/>
    </g>
    <g class="chromeDarkest">
      <path d="M289.1,188.38v9.42c0,1.22-7.06,2.2-15.77,2.2s-15.77-1-15.77-2.2v-9.42Z"/>
      <path d="M42.44,188.33v9.43c0,1.21-7.06,2.19-15.77,2.19s-15.77-1-15.77-2.19v-9.43Z"/>
      <circle cx="238.67" cy="130.46" r="5.72"/>
      <rect x="227.46" y="140.38" width="9.6" height="6.32"/>
    </g>
    <path class="chromeDark" d="M227.46,140.38l2-4.78c7.24-.28,14.29-.48,17.41,1l-9.8,3.75Z"/>
    <ellipse class="rubberMediumDark" cx="122.38" cy="136.46" rx="97" ry="6.82"/>
    <g class="chromeMedium">
      <path d="M240.14,135.46l.71-4.71a2.18,2.18,0,1,0-4.36,0l-.35,4.66C237.54,135.4,238.89,135.41,240.14,135.46Z"/>
    </g>
  </g>
  <g class="blood">
    <g class="bloodDarker">
      <path d="M170.58,130.54c12,.59,26.9,5.23,17.53,10.94-3.27,2-2.45,9,5.19,9.1,17.46.33,21.29,4.52,12.63,8.08s-12.57,10.53-7.47,24.88c4,11.16-13.08,10.62-9.24.24,4.29-11.58,3.81-21.35-10-25.38-12.06-3.52-27.48,3.82-42.31,3.29-17.11-.61-38.19-6-46.42,3.58-2.79,3.26-5,2.42-7.18,0A14.81,14.81,0,0,0,65,162c-4.37,2.5-5.33,6-3.1,12.2,3.44,9.53-10.25,9.22-7.31.26,3.12-9.51-.72-15.29-8-15.91-12.09-1-15.39-6.54-3.41-8.39,3.73-.57,6.23-3.47,4.27-9.32-1-3.11,5.55-5.3,21.11-5,11.09.21-1.56-5.29,21.2-5.87C110,129.43,150.22,129.53,170.58,130.54Z"/>
      <path d="M87.24,180.68c1.67,7.57,3,7.15,3.87,11.35,1.43,7-9.7,6.63-7.76-.28C84.57,187.43,85.75,188.25,87.24,180.68Z"/>
    </g>
    <g class="bloodDark">
      <path d="M196.57,181.36c3.2,5,1.75,10.27-3.56,9.63C196.82,188.3,196.9,185.74,196.57,181.36Z"/>
      <path d="M60.6,172.71c2.19,3.72,1.49,8.07-2.94,7.92C59.7,178.9,60.83,176.33,60.6,172.71Z"/>
      <path d="M89.61,189.88c2,3,1,7.32-3.53,6.4C88,194.7,89.43,193.72,89.61,189.88Z"/>
      <path d="M92.53,162.57C89.16,165,89.91,166.28,87,167,88.69,165.55,88.61,163.19,92.53,162.57Z"/>
      <path d="M190.51,150.2c-47.81,3-106.31,2.47-145.21-.72-6.13,1.44-10.65,3.82-5.59,5.52H207.45C208.31,152.84,201.68,150.43,190.51,150.2Z"/>
      <path d="M122.38,143.29c-30.15,0-55.22-1.9-73-3.42-.83-1.65,5.32-4.05,20.36-4.06,11.72,0-.31-5.26,20.18-5.55,20.18-.29,60.17-1.16,80.49.61,9.67.84,25.08,4.9,14.91,9.68C168,141.67,147.75,143.29,122.38,143.29Zm-39.51-3.42c0,1.2,17.31,2.18,38.67,2.18s38.67-1,38.67-2.18-17.31-2.17-38.67-2.17S82.87,138.67,82.87,139.87Z"/>
    </g>
    <g class="bloodLight">
      <path d="M186.55,137.19c1.23,2.5-3.55,2.88-17.81,3.74C175.16,140.06,185.15,139.16,186.55,137.19Z"/>
      <path d="M53.84,137.77c-8.55,1.9,7.11,2.39,18,3.16C65.59,139.71,48.89,139.47,53.84,137.77Z"/>
      <path d="M202,152c8.85,3-4.91,2.18-15.09,2.06C193.09,153,205.87,154.63,202,152Z"/>
      <path d="M40.17,151.84c-4.79,2.77,5.66,2.66,16.85,2.35C50.77,153.48,39.65,154.11,40.17,151.84Z"/>
    </g>
  </g>
  <g class="bennett">
    <path class="skinEastAsian" d="M65.93,112.15c1.68,5.54,5.34,10.63,11.23,13,6.2,2.52,7.25,6.88,14.31,1.71,16,14.26,34.71,15.34,50.71,13.73,18.23-1.83,23.88-12.86,27.64-22.27,12.84-32.2-9.86-43.14-13.32-61.88-1.92-10.41-9.89-14.82-11.28-26.4C125.75-10.34,41.31,61.07,65.93,112.15Z"/>
    <path class="bloodDried" d="M136.92,138.09c-10.54,2.23-13.28-2.21-24-3.93a21.15,21.15,0,0,0-9.27,1c12.84,6.37,26.47,6.69,38.55,5.48a37,37,0,0,0,10.61-2.55C145.43,136.22,143.27,136.75,136.92,138.09Z"/>
    <path class="tongue" d="M151,110.77c-2,6.62,2.94,14.81-7.07,17.48-4.47,1.2-8.92-3.2-6.28-9.72C141.73,115,146.72,112.76,151,110.77Z"/>
    <path class="tongueFold" d="M142.77,114.92c-.75,2.18-.79,5.77.32,7.41a13.49,13.49,0,0,1,.6-7.94Z"/>
    <g class="deadEyeBlack">
      <path d="M131.48,86.08q-5.46-1.6-11-3l2.69-10.81-2.76-.68-2.7,10.8c-3.68-.89-7.38-1.74-11.12-2.51l-.69,2.77q5.63,1.06,11.15,2.41l-2.85,11.4,2.77.69,2.84-11.4c3.7,1,7.36,2,11,3.1Z"/>
      <path d="M160.79,72.73c-3.32-1.32-6.7-2.58-10.12-3.81,1.17-3.41,2.26-6.83,3.23-10.27l-2.69-.95c-1,3.44-2.13,6.85-3.3,10.24q-5.39-1.87-10.91-3.61L136.05,67c3.64,1.1,7.28,2.3,10.93,3.57q-1.9,5.3-4,10.51l2.69,1c1.48-3.47,2.84-7,4.11-10.47,3.36,1.21,6.73,2.48,10.1,3.84Z"/>
    </g>
    <g class="eyebrowBlack">
      <path d="M119.91,63.5c-7.12,6.28-18.51,7.76-21.26,16.1C105.45,73.08,116.21,72.56,119.91,63.5Z"/>
      <path d="M152.27,54c-6.2-4-12.38,2.7-19.17,3.32C139.51,61,145.23,53.67,152.27,54Z"/>
    </g>
    <g class="skinDisplay">
      <path d="M160.29,106.4c-11.17,5.63-23.08,9.15-27.38,18.12C130.18,115.6,158.9,105.22,160.29,106.4Z"/>
      <path d="M136.36,104.47c5.18,1.81,16.16-4.86,17.16-8.84,1.83-7.31-6.48-6.79-8.66-10.4.54,4.86,9,3.54,7.3,10.14C151.27,98.78,143,103.56,136.36,104.47Z"/>
    </g>
    <path class="skinFold" d="M80.87,112.31c-5.38,3.78,5.9,6.94,3.5,10-1.06,1.33-3.14-1.13-6.85-2.18-9.85-2.78-9.74-18.94-2.21-15.67-7.35-1.34-5.82,12.78,2.45,14.92,2.51.65,5.41,2.89,5.94,2.43C85.58,120.16,74,115.36,80.87,112.31Z"/>
    <path class="hairBlack" d="M88.8,95.29c-6.52-17.31,5-23.84-4-39.41,22.17,8.22,29.71-7.5,44.86-1.77-1.32-3.69-5.11-6.35-11.31-8,18.4,2.46,25.1-11.24,43.35,3.93-.21-15.45-11.14-31-25.13-38.28,4.67-3.24,6.95-7.21,7.45-11.74C131.94,14.77,87.45-18.59,49.91,33.47,47.09,30,45.72,22.93,48.27,12.59,41.65,20.72,40.62,32.15,43.68,41c-7.4.31-11.59,3.91-14.1,8.92,4.33-2.07,10-2.73,13.38-1.11-6.93,23.67,2.87,51.92,23,63.33C63.46,101,72.75,95.38,79.65,101.32Z"/>
  </g>
</svg>
