<svg class="byCombo" viewBox="0 0 161.73 111.95">
  <g class="recordPlayer">
    <path class="baseBottom" d="M2.79,99.37v2.91a2.94,2.94,0,0,0,2.94,2.94H156a2.94,2.94,0,0,0,2.94-2.94V99.37Z"/>
    <path class="baseFront" d="M.5,87.83H161.23a0,0,0,0,1,0,0v6.39a5.15,5.15,0,0,1-5.15,5.15H5.65A5.15,5.15,0,0,1,.5,94.22V87.83a0,0,0,0,1,0,0Z"/>
    <polygon class="baseTop" points="0.5 87.83 12.91 75.9 148.81 75.9 161.23 87.83 0.5 87.83"/>
    <g class="silverFront">
      <path d="M155.45,84.67c0,.48-2.79.87-6.24.87s-6.24-.39-6.24-.87V80.53h12.48Z"/>
      <path d="M11.26,84.93c0,.34-1.26.61-2.83.61s-2.83-.27-2.83-.61v-2.3h5.66Z"/>
      <rect x="119.24" y="76.23" width="15.67" height="4.08"/>
      <path d="M12.49,77.4v4.76c0,2,23.27,3.65,52,3.65s52-1.63,52-3.65V77.4Z"/>
    </g>
    <g class="silverTop">
      <ellipse cx="149.21" cy="80.53" rx="6.24" ry="0.88"/>
      <ellipse cx="8.43" cy="82.63" rx="2.83" ry="0.62"/>
      <polygon points="134.9 76.23 133.59 74.18 119.48 74.18 119.24 76.23 134.9 76.23"/>
    </g>
    <g class="plasticSide">
      <circle cx="127.07" cy="72.34" r="5.46"/>
      <polygon points="125.9 82.88 131.15 80.69 131.15 77.49 125.9 79.5 125.9 82.88"/>
    </g>
    <g class="plasticFront">
      <path d="M155.39,105.22v5c0,.65-3.78,1.18-8.45,1.18s-8.45-.53-8.45-1.18v-5Z"/>
      <path d="M23.24,105.2v5c0,.65-3.78,1.17-8.45,1.17s-8.45-.52-8.45-1.17v-5Z"/>
      <circle cx="126.76" cy="74.18" r="3.06"/>
      <rect x="120.76" y="79.49" width="5.14" height="3.39"/>
    </g>
    <path class="plasticTop" d="M120.76,79.49l1.06-2.55c3.88-.16,7.66-.26,9.33.55l-5.25,2Z"/>
    <ellipse class="rubberMediumDark" cx="64.46" cy="77.4" rx="51.97" ry="3.66"/>
    <ellipse class="label" cx="64.46" cy="77.4" rx="17.62" ry="1.24"/>
    <g class="bar">
      <path d="M127.55,76.86l.38-2.53a1.17,1.17,0,0,0-2.34,0l-.18,2.5C126.16,76.83,126.88,76.83,127.55,76.86Z"/>
      <path d="M65.54,73.92a1.08,1.08,0,1,0-2.16,0v3.64a2.75,2.75,0,0,0,2.16,0Z"/>
    </g>
  </g>
  <g class="blood">
    <path d="M90.35,74.11c6.41.18,14.59,2.1,9.17,6.24-1.64,1.24-1.16,4.54,2.93,4.61,9.36.18,11.45,3.13,6.08,5.28-4.66,1.86-6.4,5.11-4.38,12.92,1.59,6.15-6.43,5.39-5,.13,1.78-6.33,2-11.44-5.36-13.6-6.46-1.89-13.51,2-21.46,2-9.38,0-19.83-2.27-22,2.29a2,2,0,0,1-3.85,0c-1.82-4.13-8.17-4.09-11.16-2.34-2.33,1.36-2.43,3-1.5,6.5,1.43,5.33-5.28,5.08-4.08.17,1.31-5.31-.16-7.58-4.35-8.15-5.75-.79-11.24-3.72-3.35-5.4,2-.42,3.51-1.51,2.37-4.62-.72-2,2.89-3.22,11.23-3.06,5.94.12-.84-2.83,11.36-3.14C57.83,73.63,79.54,73.8,90.35,74.11Z"/>
    <path d="M48.64,101.32c.85,3.79,1.65,4,2,6.43a2.19,2.19,0,1,1-4.16-.15C47.21,105.3,47.76,105.2,48.64,101.32Z"/>
  </g>
  <g class="bennett">
    <path class="skinEastAsian" d="M30.28,64a11.91,11.91,0,0,0,6.07,8.35c3.58,1.82,4,4.48,8.46,1.73,8.84,9.33,20,10.91,29.61,10.75,11-.18,14.92-6.49,17.63-11.93,9.29-18.61-3.73-26.28-4.86-37.65C86.56,29,82,25.93,81.77,18.94,72.16-6.19,18.13,32.27,30.28,64Z"/>
    <path class="tongue" d="M81.17,67.47c-1.53,3.85.55,8.86-5.18,9.86-2.73.47-4-2.33-3.18-5.89A34.13,34.13,0,0,1,81.17,67.47Z"/>
    <g class="deadEyeBlack">
      <path d="M69.5,51.46q-2.66-1-5.35-2l1.79-5.27-1.35-.46L62.8,49q-2.7-.9-5.44-1.71l-.45,1.35c1.84.51,3.65,1.07,5.45,1.66l-1.9,5.56,1.35.46L63.7,50.8c1.8.63,3.59,1.29,5.34,2Z"/>
      <path d="M87.73,44.83q-2.39-1.19-4.88-2.32,1.09-2.46,2-5l-1.3-.59c-.65,1.68-1.35,3.33-2.07,5q-2.59-1.15-5.28-2.25L75.65,41c1.77.7,3.53,1.45,5.29,2.23q-1.16,2.56-2.45,5.07l1.3.58c.89-1.66,1.71-3.35,2.49-5q2.43,1.11,4.87,2.33Z"/>
    </g>
    <g class="eyebrowBlack">
      <path d="M65,37.66c-4.56,3.4-10.56,4.07-13.5,8.56C55.86,42.66,61.91,42.13,65,37.66Z"/>
      <path d="M84.79,33.59c-3.85-2.07-7.53,1-11.63,1C76.32,36.27,80.6,33.05,84.79,33.59Z"/>
    </g>
    <g class="skinDisplayLine">
      <path d="M76.64,69.27A7.26,7.26,0,0,0,75.89,74"/>
      <path d="M87,65.32c-7,2.81-14.25,4.32-17.27,9.46"/>
      <path d="M78.8,51.89c1.12,2.27,6.11,2.38,4.65,6.65-.8,2.33-7.42,5.29-10.7,4.43"/>
    </g>
    <path class="skinFoldLine" d="M36.46,60.3c-4-1.93-4.18,7,1.16,9.45,1.78.81,2,1.87,2.84,1,1.53-1.67-4.67-4.13-1.28-5.81"/>
    <path class="hairBlack" d="M44.8,55.1c-3-10.67,4.2-14-.4-23.75,12.84,6,18.13-3,26.89,1.19-.6-2.27-2.73-4.06-6.35-5.36,10.87,2.39,15.56-5.47,25.71,4.51.64-9.24-5.11-19.07-13.11-24.14a9.58,9.58,0,0,0,5-6.64C74.6,9.14,49.69-13,24.65,16.21c-1.51-2.2-2-6.51.06-12.57A18.21,18.21,0,0,0,20.55,20.4,9.15,9.15,0,0,0,11.68,25c2.69-1,6.08-1.13,8.05,0-5.32,13.8-.89,31.17,10.55,39-.91-6.78,4.92-9.69,8.75-5.79Z"/>
  </g>
</svg>
