<svg class="byCombo" viewBox="0 0 321.46 222.79">
  <g class="recordPlayer">
    <path class="mapleMediumDark" d="M4.59,188.64v15.82a5.87,5.87,0,0,0,5.87,5.87H311a5.87,5.87,0,0,0,5.88-5.87V188.64Z"/>
    <path class="mapleDark" d="M0,175.55H321.46a0,0,0,0,1,0,0v12.79a10.3,10.3,0,0,1-10.3,10.3H10.3A10.3,10.3,0,0,1,0,188.34V175.55A0,0,0,0,1,0,175.55Z"/>
    <polygon class="mapleMedium" points="0 175.55 24.83 151.68 296.63 151.68 321.46 175.55 0 175.55"/>
    <g class="steelMedium">
      <path d="M309.9,169.23c0,1-5.58,1.75-12.48,1.75S285,170.19,285,169.23v-8.29H309.9Z"/>
      <path d="M21.52,169.75c0,.68-2.53,1.23-5.65,1.23s-5.66-.55-5.66-1.23v-4.59H21.52Z"/>
      <rect x="237.47" y="152.36" width="31.34" height="8.16"/>
      <path d="M24,154.69v9.51c0,4,46.54,7.32,103.94,7.32s103.94-3.28,103.94-7.32v-9.51Z"/>
    </g>
    <g class="steelLight">
      <ellipse cx="297.42" cy="160.94" rx="12.48" ry="1.75"/>
      <ellipse cx="15.87" cy="165.16" rx="5.66" ry="1.23"/>
      <polygon points="268.81 152.36 266.18 148.25 237.96 148.25 237.47 152.36 268.81 152.36"/>
    </g>
    <g class="chromeDarker">
      <circle cx="253.14" cy="144.57" r="10.91"/>
      <polygon points="250.8 165.66 261.31 161.27 261.31 154.87 250.8 158.88 250.8 165.66"/>
    </g>
    <g class="chromeDarkest">
      <path d="M309.78,210.33v10.11c0,1.3-7.57,2.35-16.9,2.35s-16.9-1-16.9-2.35V210.33Z"/>
      <path d="M45.48,210.28v10.11c0,1.3-7.57,2.35-16.9,2.35s-16.9-1.05-16.9-2.35V210.28Z"/>
      <circle cx="252.53" cy="148.25" r="6.13"/>
      <rect x="240.51" y="158.88" width="10.29" height="6.77"/>
    </g>
    <path class="chromeDark" d="M240.51,158.88l2.14-5.12c7.76-.3,15.3-.51,18.65,1.11l-10.5,4Z"/>
    <ellipse class="rubberMediumDark" cx="127.92" cy="154.69" rx="103.94" ry="7.31"/>
    <ellipse class="dullYellowMedium" cx="127.92" cy="154.69" rx="35.24" ry="2.48"/>
    <g class="chromeMedium">
      <path d="M254.1,153.61l.76-5.05a2.34,2.34,0,1,0-4.67,0l-.38,5C251.32,153.54,252.76,153.56,254.1,153.61Z"/>
    </g>
  </g>
  <g class="blood">
    <g class="bloodDarker">
      <path d="M179.57,148.34c12.81.63,28.82,5.61,18.78,11.73-3.51,2.14-2.63,9.59,5.56,9.75,18.7.35,22.89,6.25,12.15,10.54-9.33,3.72-13,10.09-8.76,25.85,3.31,12.27-12.86,10.78-9.9.27,3.56-12.66,4.08-22.89-10.71-27.21-12.93-3.77-27,3.95-42.93,3.95-18.76,0-40.24-4.8-44.06,4.56-1.74,4.26-6,4.38-7.7,0-3.19-8.44-16.33-8.19-22.32-4.68-4.66,2.72-5.71,6.46-3.32,13.07,3.69,10.22-11,9.89-7.83.28,3.34-10.2-.32-15.17-8.71-16.32-11.5-1.57-22.47-7.43-6.71-10.79,4-.85,6.68-3.72,4.58-10-1.12-3.34,6-5.69,22.62-5.36,11.89.23-1.67-5.67,22.72-6.29C114.66,147.14,157.75,147.26,179.57,148.34Z"/>
      <path d="M96.16,202.43c1.72,8.32,3.27,8.46,4.2,13,1.52,7.45-10.41,7.1-8.32-.31C93.35,210.46,94.6,210.77,96.16,202.43Z"/>
    </g>
    <g class="bloodDark">
      <path d="M205.54,203.61c2.36,5.54,1.75,10.75-3.81,10.32C205.38,210.77,205.52,208.07,205.54,203.61Z"/>
      <path d="M64.93,194.61c2.35,4,1.51,8.56-3.15,8.49C64.33,201.14,65.18,198.49,64.93,194.61Z"/>
      <path d="M98.67,213c2.11,3.16,1.11,7.84-3.77,6.86C97.8,218.54,98.48,217.14,98.67,213Z"/>
      <path d="M101.45,184.61c-3,2.36-2.19,5.61-5.77,5.83C98.21,189.54,98.17,186,101.45,184.61Z"/>
      <path d="M200.92,169.41c-51.23,3.24-113.91,2.64-155.6-.77-6.56,1.54-11.41,4.09-6,5.91H219.07C220,172.24,212.89,169.66,200.92,169.41Z"/>
      <path d="M195.35,159.06c10.9-5.12-5.62-9.47-16-10.37-21.77-1.89-64.62-1-86.25-.65-22,.31-9.06,5.94-21.62,5.94-16.11,0-22.7,2.59-21.81,4.36C68.75,160,95.62,162,127.92,162,155.1,162,176.83,160.27,195.35,159.06Z"/>
    </g>
    <g class="bloodMedium">
      <path d="M196.67,155.47c1.33,2.67-3.8,3.08-19.08,4C184.47,158.54,195.17,157.58,196.67,155.47Z"/>
      <path d="M54.47,156.09c-9.15,2,7.62,2.56,19.27,3.39C67.06,158.17,49.18,157.91,54.47,156.09Z"/>
      <path d="M213.18,171.34c9.48,3.17-5.26,2.34-16.17,2.21C203.69,172.37,217.37,174.16,213.18,171.34Z"/>
      <path d="M39.83,171.17c-5.13,3,6.07,2.85,18.05,2.52C51.19,172.92,39.28,173.6,39.83,171.17Z"/>
    </g>
  </g>
  <g class="bennett">
    <path class="skinEastAsian" d="M59.71,128.49c1.61,6.76,5.61,13.12,12.49,16.43,7.23,3.48,8.16,8.78,17,3.11,18.09,18.26,40.41,20.94,59.69,20.2,22-.84,29.53-13.62,34.72-24.62C201.37,106,175,91.23,172.26,68.54c-1.54-12.61-10.75-18.48-11.55-32.45C140.4-13.74,34,65.5,59.71,128.49Z"/>
    <path class="tongue" d="M161.62,133.14c-2.9,7.78,1.48,17.7-9.93,19.94-5.45,1.08-8.87-4.55-6.63-11.64C150.23,137.55,156.37,135.21,161.62,133.14Z"/>
    <path class="tongueFold" d="M151.48,137.5c-1,2.56-1.37,6.85-.16,8.89-.63-3,.17-7.64,1.31-9.45Z"/>
    <g class="deadEyeBlack">
      <path d="M137.58,101.63Q132.24,99.7,126.79,98l3.36-10.61-2.72-.86L124.08,97.1q-5.43-1.69-10.94-3.2l-.86,2.72q5.55,1.41,11,3.1l-3.54,11.2,2.71.86L126,100.57c3.63,1.18,7.22,2.42,10.76,3.78Z"/>
      <path d="M173.75,87.6q-4.84-2.28-9.86-4.43c1.38-3.32,2.68-6.67,3.86-10L165.12,72c-1.23,3.37-2.54,6.7-3.92,10q-5.25-2.2-10.66-4.28l-1.11,2.62c3.56,1.32,7.12,2.75,10.68,4.24q-2.22,5.17-4.68,10.24L158.05,96c1.69-3.37,3.26-6.77,4.75-10.19,3.28,1.42,6.56,2.89,9.83,4.45Z"/>
    </g>
    <g class="eyebrowBlack">
      <path d="M127.93,74.24c-9,7-20.93,8.61-26.63,17.7C109.92,84.64,122,83.31,127.93,74.24Z"/>
      <path d="M167.38,65.25c-7.78-4-15,2.31-23.2,2.56C150.57,71,159,64.35,167.38,65.25Z"/>
    </g>
    <g class="skinDisplay">
      <path d="M173.09,128.61c-13.79,5.9-28.31,9.24-34.12,19.66C139.85,137.51,167.52,129.66,173.09,128.61Z"/>
      <path d="M144.58,124.52c6.72,2,19.71-4.63,21.2-9.32,2.74-8.61-7.25-8.6-9.59-13.09.87,5.94,10.77,4.88,8.22,12.65C163.09,118.78,152.55,123.92,144.58,124.52Z"/>
    </g>
    <path class="skinFold" d="M77.59,129.79c-6.79,4.2,6.62,8.41,3.4,12.08-1.68,1.92-3.66-1.54-8-3-11.82-4-10.73-23.79-1.43-18.92-8.7-2.15-7.85,14.68,1.88,17.86,3,1,5.87,3.81,6.55,3.3C82.32,139.3,68.68,133.14,77.59,129.79Z"/>
    <path class="hairBlack" d="M88.34,110c-6.51-21.21,7.79-28.17-1.82-47.49,25.93,11.49,36.12-6.77,53.83,1.22-1.3-4.52-5.64-8-12.94-10.44,21.84,4.3,30.87-11.6,51.6,7.91.89-18.52-11-37.92-27.25-47.7C157.6,10,160.62,5.38,161.55,0,146,16.79,95.17-26.45,46.38,33.1,43.26,28.76,42.15,20.17,46,8c-8.53,9.25-10.61,22.85-7.6,33.7-8.88-.18-14.17,3.81-17.53,9.63,5.33-2.16,12.11-2.53,16.09-.34-10,27.83-.42,62.38,22.79,77.53-2.13-13.5,9.41-19.58,17.24-12Z"/>
  </g>
</svg>
