<svg class="byCombo" viewBox="0 0 300 200">
  <g class="recordPlayer">
    <path class="mapleMediumDark" d="M4.28,168.14V182.9a5.48,5.48,0,0,0,5.48,5.48H290.24a5.48,5.48,0,0,0,5.48-5.48V168.14Z"/>
    <path class="mapleDark" d="M0,155.93H300a0,0,0,0,1,0,0v11.93a9.61,9.61,0,0,1-9.61,9.61H9.61A9.61,9.61,0,0,1,0,167.86V155.93A0,0,0,0,1,0,155.93Z"/>
    <polygon class="mapleMedium" points="0 155.93 23.17 133.66 276.83 133.66 300 155.93 0 155.93"/>
    <g class="steelDark">
      <path d="M289.22,150c0,.9-5.22,1.63-11.65,1.63s-11.64-.73-11.64-1.63V142.3h23.29Z"/>
      <path d="M20.09,150.51c0,.64-2.37,1.15-5.28,1.15s-5.28-.51-5.28-1.15v-4.28H20.09Z"/>
      <rect x="221.62" y="134.29" width="29.24" height="7.61"/>
      <path d="M22.38,136.46v8.88c0,3.77,43.43,6.83,97,6.83s97-3.06,97-6.83v-8.88Z"/>
    </g>
    <g class="steelMedium">
      <ellipse cx="277.57" cy="142.3" rx="11.65" ry="1.64"/>
      <ellipse cx="14.81" cy="146.23" rx="5.28" ry="1.15"/>
      <polygon points="250.87 134.29 248.41 130.46 222.07 130.46 221.62 134.29 250.87 134.29"/>
    </g>
    <g class="chromeDarker">
      <circle cx="236.24" cy="127.02" r="10.18"/>
      <polygon points="234.06 146.7 243.86 142.61 243.86 136.63 234.06 140.38 234.06 146.7"/>
    </g>
    <g class="chromeDarkest">
      <path d="M289.1,188.38v9.42c0,1.22-7.06,2.2-15.77,2.2s-15.77-1-15.77-2.2v-9.42Z"/>
      <path d="M42.44,188.33v9.43c0,1.21-7.06,2.19-15.77,2.19s-15.77-1-15.77-2.19v-9.43Z"/>
      <circle cx="235.67" cy="130.46" r="5.72"/>
      <rect x="224.46" y="140.38" width="9.6" height="6.32"/>
    </g>
    <path class="chromeDark" d="M224.46,140.38l2-4.78c7.24-.28,14.29-.48,17.41,1l-9.8,3.75Z"/>
    <ellipse class="rubberMediumDark" cx="119.38" cy="136.46" rx="97" ry="6.82"/>
    <ellipse class="dullYellowMedium" cx="119.38" cy="136.46" rx="32.88" ry="2.31"/>
    <g class="chromeMedium">
      <path d="M237.14,135.46l.71-4.71a2.18,2.18,0,1,0-4.36,0l-.35,4.66C234.54,135.4,235.89,135.41,237.14,135.46Z"/>
    </g>
  </g>
  <g class="blood">
    <g class="bloodDarker">
      <path d="M167.58,130.54c12,.59,26.9,5.23,17.53,10.94-3.27,2-2.45,9,5.19,9.1,17.46.33,21.36,5.84,11.33,9.84-8.7,3.47-12.15,9.41-8.17,24.12,3.09,11.44-12,10.05-9.24.24,3.33-11.81,3.81-21.35-10-25.38-12.06-3.52-25.23,3.68-40.06,3.68-17.51,0-37.56-4.48-41.13,4.26-1.62,4-5.63,4.09-7.18,0-3-7.88-15.24-7.64-20.83-4.37-4.35,2.54-5.33,6-3.1,12.2,3.44,9.53-10.25,9.22-7.31.26,3.12-9.51-.3-14.15-8.13-15.22-10.73-1.47-21-6.94-6.25-10.08,3.69-.79,6.23-3.47,4.27-9.32-1-3.11,5.55-5.3,21.11-5,11.09.21-1.56-5.29,21.2-5.87C107,129.43,147.22,129.53,167.58,130.54Z"/>
      <path d="M89.74,181c1.61,7.77,3.05,7.9,3.92,12.1,1.42,7-9.71,6.63-7.76-.28C87.12,188.5,88.29,188.78,89.74,181Z"/>
    </g>
    <g class="bloodDark">
      <path d="M191.82,182.1c2.21,5.18,1.64,10-3.55,9.63C191.67,188.79,191.8,186.26,191.82,182.1Z"/>
      <path d="M60.6,173.71c2.19,3.72,1.4,8-2.94,7.92C60,179.8,60.83,177.33,60.6,173.71Z"/>
      <path d="M92.09,190.88c2,3,1,7.32-3.53,6.41C91.27,196,91.91,194.73,92.09,190.88Z"/>
      <path d="M94.68,164.38c-2.79,2.2-2,5.23-5.39,5.44C91.66,169,91.62,165.64,94.68,164.38Z"/>
      <path d="M187.51,150.2c-47.81,3-106.31,2.47-145.21-.72-6.13,1.44-10.65,3.82-5.59,5.52H204.45C205.31,152.84,198.68,150.43,187.51,150.2Z"/>
      <path d="M182.31,140.55c10.17-4.78-5.24-8.84-14.91-9.68-20.32-1.77-60.31-.9-80.49-.61-20.49.29-8.46,5.54-20.18,5.55-15,0-21.19,2.41-20.36,4.06,17.79,1.52,42.86,3.42,73,3.42C144.75,143.29,165,141.67,182.31,140.55Z"/>
    </g>
    <g class="bloodLight">
      <path d="M183.55,137.19c1.23,2.5-3.55,2.88-17.81,3.74C172.16,140.06,182.15,139.16,183.55,137.19Z"/>
      <path d="M50.84,137.77c-8.55,1.9,7.11,2.39,18,3.16C62.59,139.71,45.89,139.47,50.84,137.77Z"/>
      <path d="M199,152c8.85,3-4.91,2.18-15.09,2.06C190.09,153,202.87,154.63,199,152Z"/>
      <path d="M37.17,151.84c-4.79,2.77,5.66,2.66,16.85,2.35C47.77,153.48,36.65,154.11,37.17,151.84Z"/>
    </g>
  </g>
  <g class="bennett">
    <path class="skinEastAsian" d="M62.93,112.15c1.68,5.54,5.34,10.63,11.23,13,6.2,2.52,7.25,6.88,14.31,1.71,16,14.26,34.71,15.34,50.71,13.73,18.23-1.83,23.88-12.86,27.64-22.27,12.84-32.2-9.86-43.14-13.32-61.88-1.92-10.41-9.89-14.82-11.28-26.4C122.75-10.34,38.31,61.07,62.93,112.15Z"/>
    <path class="tongue" d="M148,110.77c-2,6.62,2.94,14.81-7.07,17.48-4.47,1.2-8.92-3.2-6.28-9.72C138.73,115,143.72,112.76,148,110.77Z"/>
    <path class="tongueFold" d="M139.77,114.92c-.75,2.18-.79,5.77.32,7.41a13.49,13.49,0,0,1,.6-7.94Z"/>
    <g class="deadEyeBlack">
      <path d="M128.48,86.08q-5.46-1.6-11-3l2.69-10.81-2.76-.68-2.7,10.8c-3.68-.89-7.38-1.74-11.12-2.51l-.69,2.77q5.63,1.06,11.15,2.41l-2.85,11.4,2.77.69,2.84-11.4c3.7,1,7.36,2,11,3.1Z"/>
      <path d="M157.79,72.73c-3.32-1.32-6.7-2.58-10.12-3.81,1.17-3.41,2.26-6.83,3.23-10.27l-2.69-.95c-1,3.44-2.13,6.85-3.3,10.24q-5.39-1.87-10.91-3.61L133.05,67c3.64,1.1,7.28,2.3,10.93,3.57q-1.9,5.3-4,10.51l2.69,1c1.48-3.47,2.84-7,4.11-10.47,3.36,1.21,6.73,2.48,10.1,3.84Z"/>
    </g>
    <g class="eyebrowBlack">
      <path d="M116.91,63.5c-7.12,6.28-18.51,7.76-21.26,16.1C102.45,73.08,113.21,72.56,116.91,63.5Z"/>
      <path d="M149.27,54c-6.2-4-12.38,2.7-19.17,3.32C136.51,61,142.23,53.67,149.27,54Z"/>
    </g>
    <g class="skinDisplay">
      <path d="M157.29,106.4c-11.17,5.63-23.08,9.15-27.38,18.12C127.18,115.6,155.9,105.22,157.29,106.4Z"/>
      <path d="M133.36,104.47c5.18,1.81,16.16-4.86,17.16-8.84,1.83-7.31-6.48-6.79-8.66-10.4.54,4.86,9,3.54,7.3,10.14C148.27,98.78,140,103.56,133.36,104.47Z"/>
    </g>
    <path class="skinFold" d="M77.87,112.31c-5.38,3.78,5.9,6.94,3.5,10-1.06,1.33-3.14-1.13-6.85-2.18-9.85-2.78-9.74-18.94-2.21-15.67-7.35-1.34-5.82,12.78,2.45,14.92,2.51.65,5.41,2.89,5.94,2.43C82.58,120.16,71,115.36,77.87,112.31Z"/>
    <path class="hairBlack" d="M85.8,95.29c-6.52-17.31,5-23.84-4-39.41,22.17,8.22,29.71-7.5,44.86-1.77-1.32-3.69-5.11-6.35-11.31-8,18.4,2.46,25.1-11.24,43.35,3.93-.21-15.45-11.14-31-25.13-38.28,4.67-3.24,6.95-7.21,7.45-11.74C128.94,14.77,84.45-18.59,46.91,33.47,44.09,30,42.72,22.93,45.27,12.59,38.65,20.72,37.62,32.15,40.68,41c-7.4.31-11.59,3.91-14.1,8.92,4.33-2.07,10-2.73,13.38-1.11-6.93,23.67,2.87,51.92,23,63.33C60.46,101,69.75,95.38,76.65,101.32Z"/>
  </g>
</svg>
