
<svg viewBox="0 0 46.2 48">
  <g class="facebookLike">
    <path d="M29,0L29,0c1.6,0.1,2.9,1,3.5,2.4c1.3,3.1,1.4,6.5,0.2,9.6c-1.7,4.5-2.1,4.8-2.1,4.8s-0.6,0.8,1.2,0.8L43,17.6
      c1.9,0.1,3.4,1.8,3.2,3.7c0,0.1,0,0.2,0,0.3c0.1,1.6-0.9,3-2.4,3.5c-0.1,0-0.1,0.1-0.1,0.2c0,0,0,0,0,0c0,0,0,0.1,0.1,0.1
      c0.8,0.5,2.4,1.6,2.3,3.4c0,2.1-0.9,2.9-2.7,3.4c-0.1,0-0.2,0.1-0.1,0.2c0,0,0,0,0,0c0,0,0,0.1,0.1,0.1c1.2,0.6,1.9,1.9,1.8,3.2
      c0,1.3-0.9,2.5-2.2,2.8c-0.1,0-0.2,0.1-0.1,0.2c0,0,0,0,0,0c0,0,0,0.1,0.1,0.1c0.8,0.6,1.2,1.6,1.1,2.6c0,0.7-0.2,1.3-0.6,1.8
      c-0.6,0.7-1.4,1-2.3,1h-24c0,0-1.3,0-1.3-1.7V27c0-3.9,1.1-7.7,3.2-11c1.7-2.4,3.6-4.7,5.6-6.9c0.4-0.4,1.6-1.5,1.6-2.1
      c0-0.8,0.1-2,0.1-4.3C26.3,1.2,27.5,0,29,0z"/>
    <path d="M1.4,23.1H11c0.8,0,1.4,0.6,1.4,1.4c0,0,0,0,0,0v22.1c0,0.8-0.6,1.4-1.4,1.4H1.4C0.6,48,0,47.4,0,46.6c0,0,0,0,0,0V24.5
      C0,23.8,0.6,23.1,1.4,23.1z"/>
  </g>
</svg>
